<svg width="28" height="28" viewBox="0 0 28 28" fill="none" xmlns="http://www.w3.org/2000/svg">
<g clip-path="url(#clip0_171_392)">
<path d="M9.33325 8.16667C9.33325 9.40434 9.82492 10.5913 10.7001 11.4665C11.5753 12.3417 12.7622 12.8333 13.9999 12.8333C15.2376 12.8333 16.4246 12.3417 17.2998 11.4665C18.1749 10.5913 18.6666 9.40434 18.6666 8.16667C18.6666 6.92899 18.1749 5.742 17.2998 4.86683C16.4246 3.99167 15.2376 3.5 13.9999 3.5C12.7622 3.5 11.5753 3.99167 10.7001 4.86683C9.82492 5.742 9.33325 6.92899 9.33325 8.16667Z" stroke="#131313" stroke-width="1.5" stroke-linecap="round" stroke-linejoin="round"/>
<path d="M7 24.5V22.1667C7 20.929 7.49167 19.742 8.36683 18.8668C9.242 17.9917 10.429 17.5 11.6667 17.5H16.3333C17.571 17.5 18.758 17.9917 19.6332 18.8668C20.5083 19.742 21 20.929 21 22.1667V24.5" stroke="#131313" stroke-width="1.5" stroke-linecap="round" stroke-linejoin="round"/>
</g>
<defs>
<clipPath id="clip0_171_392">
<rect width="28" height="28" fill="white"/>
</clipPath>
</defs>
</svg>
