<svg width="591" height="421" viewBox="0 0 591 421" fill="none" xmlns="http://www.w3.org/2000/svg">
  <path fill-rule="evenodd" clip-rule="evenodd"
    d="M274.897 0.151826C274.639 0.381826 261.828 0.849827 246.428 1.19083C146.119 3.41383 46.1474 22.8388 9.67641 47.1938C-0.461586 53.9638 -2.34459 59.1848 2.67841 66.5918C19.2174 90.9768 87.5004 110.293 188.928 119.277C223.646 122.352 239.252 123.013 289.816 123.546C344.496 124.123 370.548 123.267 404.428 119.78C414.878 118.705 427.928 117.36 433.428 116.791C480.396 111.938 537.775 98.6308 576.057 83.7128C589.171 78.6018 592.477 76.6648 583.444 79.3828C578.166 80.9718 551.125 86.1168 538.928 87.8538C440.23 101.907 332.133 104.441 240.428 94.8508C206.291 91.2808 167.963 85.7068 139.928 80.2338C130.74 78.4398 105.535 72.1728 101.428 70.6598C93.3704 67.6918 87.0024 64.4738 86.4774 63.1038C85.0144 59.2928 93.1404 55.0938 111.114 50.3698C139.17 42.9978 171.512 38.1738 245.428 30.3378C257.653 29.0418 302.807 25.7608 322.657 24.7258C356.038 22.9858 416.697 24.8238 459.428 28.8698C475.726 30.4128 527.002 36.6578 537.928 38.4288C546.32 39.7908 583.282 46.1788 589.928 47.4168C593.179 48.0228 581.507 43.9988 566.928 39.4868C556.902 36.3838 533.713 30.3538 512.928 25.4438C490.11 20.0528 443.269 11.8678 420.673 9.32282C413.388 8.50182 402.028 7.17982 395.428 6.38382C378.308 4.32082 362.034 2.94982 341.928 1.87882C320.473 0.735815 275.54 -0.422174 274.897 0.151826ZM584.428 118.85C578.119 121.224 562.411 125.943 549.428 129.365C529.71 134.561 524.291 135.891 514.928 137.833C509.703 138.917 502.278 140.506 498.428 141.363C494.578 142.221 483.553 144.283 473.928 145.946C464.303 147.609 453.953 149.403 450.928 149.932C440.124 151.824 396.114 156.935 378.428 158.351C323.35 162.763 267.477 162.921 214.928 158.815C196.176 157.35 151.077 152.063 138.928 149.906C85.3034 140.386 44.4844 131.223 20.1434 123.243C12.9744 120.893 12.6394 121.085 13.4504 127.088C14.3054 133.405 17.8354 143.148 21.1944 148.461C25.4384 155.173 34.0024 162.767 41.4074 166.386C54.8334 172.947 118.786 184.104 172.928 189.33C295.002 201.113 400.784 191.983 492.382 161.757C503.907 157.954 517.182 153.216 521.882 151.229C546.429 140.85 561.215 133.818 578.428 124.335C592.583 116.537 593.99 115.251 584.428 118.85ZM571.928 188.764C568.901 190.509 536.075 200.147 515.545 205.319C458.786 219.616 398.304 228.244 328.928 231.94C302.083 233.371 235.119 232.504 210.928 230.413C144.502 224.671 92.2324 216.478 41.4284 203.844C33.1784 201.792 26.2894 200.468 26.1204 200.901C25.5804 202.278 29.6934 209.412 35.1064 216.489C44.5004 228.77 52.8534 235.671 66.0984 242.094C78.0234 247.876 82.5884 249.041 109.928 253.275C218.96 270.158 322.479 269.466 411.774 251.255C439.05 245.692 477.289 234.247 503.757 223.724C516.31 218.734 546.866 204.119 558.428 197.576C572.218 189.772 575.376 187.858 574.428 187.878C573.878 187.889 572.753 188.288 571.928 188.764ZM537.428 266.462C502.982 277.12 459.733 286.219 409.928 293.287C324.535 305.404 216.164 305.032 136.428 292.349C131.478 291.562 121.506 289.992 114.267 288.861C107.029 287.731 93.3414 285.238 83.8504 283.322C74.3594 281.406 66.4254 280.008 66.2194 280.214C65.6874 280.746 73.6234 293.478 77.8274 298.838C82.3204 304.566 91.0464 312.776 92.6784 312.811C93.3664 312.826 93.9284 313.241 93.9284 313.733C93.9284 315.158 109.843 322.576 116.428 324.22C123.078 325.88 148.145 329.135 168.928 331.038C191.085 333.066 282.932 332.721 305.928 330.522C365.215 324.855 416.656 315.369 455.923 302.862C461.146 301.199 465.803 299.838 466.272 299.838C466.742 299.838 468.544 299.195 470.277 298.41C472.01 297.624 477.478 295.658 482.428 294.042C487.378 292.425 493.453 290.181 495.928 289.056C498.403 287.93 504.886 285.139 510.335 282.853C525.14 276.641 552.72 262.601 549.428 262.952C548.878 263.011 543.478 264.59 537.428 266.462ZM483.83 352.269C482.749 353.351 446.834 362.701 431.774 365.821C347.953 383.192 258.975 385.261 177.028 371.743C163.607 369.53 146.107 366.158 138.137 364.252C130.168 362.345 123.373 361.064 123.038 361.405C122.702 361.747 125.578 364.97 129.428 368.569C158.885 396.104 196.771 412.297 247.928 419.219C263.286 421.297 324.397 420.763 338.928 418.424C395.594 409.302 430.798 394.33 476.521 359.907C482.415 355.469 486.568 351.838 485.749 351.838C484.931 351.838 484.067 352.032 483.83 352.269Z"
    fill="#AA7C52" />
</svg>