<svg width="27" height="26" viewBox="0 0 27 26" fill="none" xmlns="http://www.w3.org/2000/svg">
<g clip-path="url(#clip0_108_931)">
<path d="M4.60645 8.66659C4.60645 7.51731 5.06299 6.41511 5.87565 5.60246C6.68831 4.7898 7.79051 4.33325 8.93978 4.33325H17.6064C18.7557 4.33325 19.8579 4.7898 20.6706 5.60246C21.4832 6.41511 21.9398 7.51731 21.9398 8.66659V17.3333C21.9398 18.4825 21.4832 19.5847 20.6706 20.3974C19.8579 21.21 18.7557 21.6666 17.6064 21.6666H8.93978C7.79051 21.6666 6.68831 21.21 5.87565 20.3974C5.06299 19.5847 4.60645 18.4825 4.60645 17.3333V8.66659Z" stroke="#A87C4F" stroke-width="1.5" stroke-linecap="round" stroke-linejoin="round"/>
<path d="M10.0234 13C10.0234 13.862 10.3658 14.6886 10.9753 15.2981C11.5848 15.9076 12.4115 16.25 13.2734 16.25C14.1354 16.25 14.962 15.9076 15.5715 15.2981C16.181 14.6886 16.5234 13.862 16.5234 13C16.5234 12.138 16.181 11.3114 15.5715 10.7019C14.962 10.0924 14.1354 9.75 13.2734 9.75C12.4115 9.75 11.5848 10.0924 10.9753 10.7019C10.3658 11.3114 10.0234 12.138 10.0234 13Z" stroke="#A87C4F" stroke-width="1.5" stroke-linecap="round" stroke-linejoin="round"/>
<path d="M18.1484 8.125V8.135" stroke="#A87C4F" stroke-width="1.5" stroke-linecap="round" stroke-linejoin="round"/>
</g>
<defs>
<clipPath id="clip0_108_931">
<rect width="26" height="26" fill="white" transform="translate(0.273438)"/>
</clipPath>
</defs>
</svg>
